<svg xmlns="http://www.w3.org/2000/svg" viewBox="0 0 64 64" fill="none">
  <!-- Background circle -->
  <circle cx="32" cy="32" r="30" fill="#16a34a"/>
  <circle cx="32" cy="32" r="28" fill="#15803d"/>
  
  <!-- Leaf shape -->
  <path d="M16 44 C16 44, 18 16, 48 12 C48 12, 44 42, 16 44Z" fill="#22c55e" stroke="#bbf7d0" stroke-width="0.5"/>
  
  <!-- Leaf vein (midrib) -->
  <path d="M18 42 C24 34, 34 24, 46 14" stroke="#15803d" stroke-width="1.5" fill="none" stroke-linecap="round"/>
  
  <!-- Secondary veins -->
  <path d="M24 38 C28 34, 32 30, 38 22" stroke="#15803d" stroke-width="0.8" fill="none" opacity="0.6"/>
  <path d="M22 36 C24 34, 28 28, 34 24" stroke="#15803d" stroke-width="0.8" fill="none" opacity="0.6"/>
  
  <!-- AI Eye / Drishti symbol -->
  <ellipse cx="33" cy="28" rx="8" ry="5.5" fill="white" opacity="0.95"/>
  <circle cx="33" cy="28" r="3.5" fill="#15803d"/>
  <circle cx="33" cy="28" r="1.8" fill="#0f172a"/>
  <circle cx="34.2" cy="27" r="0.8" fill="white"/>
  
  <!-- Scanning lines (AI effect) -->
  <line x1="25" y1="28" x2="22" y2="28" stroke="white" stroke-width="0.6" opacity="0.7"/>
  <line x1="41" y1="28" x2="44" y2="28" stroke="white" stroke-width="0.6" opacity="0.7"/>
  
  <!-- Small dots around eye (tech feel) -->
  <circle cx="23" cy="25" r="0.7" fill="#bbf7d0" opacity="0.8"/>
  <circle cx="43" cy="25" r="0.7" fill="#bbf7d0" opacity="0.8"/>
  <circle cx="23" cy="31" r="0.7" fill="#bbf7d0" opacity="0.8"/>
  <circle cx="43" cy="31" r="0.7" fill="#bbf7d0" opacity="0.8"/>
  
  <!-- F letter subtle watermark -->
  <text x="10" y="58" font-family="Arial, sans-serif" font-size="10" font-weight="bold" fill="white" opacity="0.9">FD</text>
</svg>
